<svg width="146" height="48" viewBox="0 0 146 48" fill="none" xmlns="http://www.w3.org/2000/svg">
<path d="M37.2133 0.103603C34.9231 0.282825 32.6349 0.777294 30.3463 1.45059C27.6077 2.2583 24.9143 3.29084 22.4017 4.90627C20.696 5.9388 19.1687 7.15017 17.9126 8.7668C17.0145 9.97816 16.342 11.2359 15.9832 12.5813C15.5784 14.3784 15.6688 16.0826 16.028 17.6548C16.5213 19.5395 17.3285 21.1549 18.3166 22.7267C19.7083 24.971 21.414 27.0357 22.9398 29.2352C24.2867 31.1651 25.7232 33.0513 26.9341 35.1148C27.2937 35.6989 27.6525 36.3722 27.9222 37.0459C28.2366 37.898 28.4602 38.7965 28.4154 39.7831C28.3258 40.5012 28.1474 41.2197 27.5633 41.8482C27.1593 42.297 26.6645 42.6111 26.1268 42.8363C25.2283 43.1951 24.3315 43.374 23.3882 43.5096C20.6052 43.8688 17.8682 43.9136 14.8599 43.7332C12.9306 43.644 10.8208 43.2399 8.84665 42.6111C8.08339 42.3874 7.41013 42.0734 6.87089 41.4893C6.37765 40.996 6.46686 40.3223 7.09611 39.6939C7.45494 39.3794 7.76937 39.1098 8.1734 38.8861C10.1472 37.6284 12.2569 36.9107 14.4115 36.7314C15.3548 36.687 16.2068 36.7314 17.0145 37.0907C17.5089 37.3143 18.0022 37.4944 18.4966 37.718C19.2151 37.9876 20.0223 38.2125 20.8748 38.2125C21.5485 38.2125 21.9969 37.718 21.9969 37.0907C21.9969 36.8211 21.8625 36.551 21.7281 36.3278C21.2784 35.6093 20.6512 35.1148 19.8871 34.7112C17.8682 33.6782 15.6244 33.185 13.1554 33.2302C10.2832 33.3194 7.49974 33.9931 4.67192 35.3845C3.36982 36.0134 2.11372 36.8211 1.03643 37.898C0.183967 38.7509 -0.130459 39.6491 0.0483555 40.6368C0.22877 41.4893 0.632399 42.1178 1.17044 42.7007C2.06891 43.7332 3.2354 44.4513 4.4931 45.0802C6.91569 46.2472 9.65391 46.8756 12.4821 47.2797C14.1879 47.5041 15.8924 47.6834 17.6429 47.7726C19.5739 47.8638 21.4588 47.8638 23.433 47.7278C25.3639 47.5941 27.3381 47.3689 29.3139 46.7864C30.5252 46.4716 31.7376 46.0235 32.9045 45.3498C35.1483 44.0028 36.3152 42.2074 36.4504 39.8727C36.4504 38.8413 36.3152 37.898 36.0464 36.9999C35.2827 34.5319 34.1602 32.3328 32.9045 30.2229C32.0957 28.876 31.1536 27.6186 30.2555 26.2728C29.9411 25.8231 29.6279 25.4191 29.3139 24.971C28.101 23.22 26.8449 21.5142 25.9016 19.5843C25.2747 18.3269 24.8247 16.9815 24.7799 15.5001C24.6455 13.1206 25.632 11.0555 27.6973 9.26006C28.4602 8.58637 29.3139 7.95948 30.2107 7.41981C33.667 5.39953 37.2581 4.18817 40.9384 3.87333C41.792 3.82892 42.5993 3.78411 43.3626 3.96333C43.811 4.09855 43.991 4.36819 43.991 4.77224C44.0354 5.26551 43.991 5.75998 43.811 6.25325C43.3178 7.68984 42.5101 9.03643 41.208 10.069C39.9059 11.1451 38.559 12.0432 37.1685 12.8958C35.9112 13.6139 34.6103 14.1979 33.2634 14.6912C32.9045 14.8264 32.5005 15.0057 32.3653 15.4541C32.2309 15.9038 32.5453 16.1278 32.8133 16.3078C33.353 16.6667 33.9818 16.8459 34.6551 16.8459C35.4627 16.8011 36.2256 16.7119 37.0329 16.4867C40.0859 15.5893 42.9137 14.1979 45.5615 12.0881C46.7728 11.1003 47.8501 10.023 48.7482 8.8116C49.6455 7.59983 50.1399 6.34286 49.9599 4.99588C49.8255 4.14336 49.377 3.42526 48.793 2.84118C48.0301 2.07828 47.0873 1.5402 46.0548 1.13655C44.0354 0.328434 41.8392 -1.14441e-05 39.5415 -1.14441e-05C38.7758 -1.14441e-05 37.9985 0.0363922 37.2133 0.103603Z" fill="url(#paint0_linear_7_1010)"/>
<path d="M59.8447 22.7471C59.497 22.9552 59.1838 23.2336 58.9398 23.5468C58.7654 23.6869 58.6266 23.8609 58.487 24.0345C58.2778 24.2437 58.2778 24.2781 58.1389 24.0693C58.1045 23.9997 58.0337 23.9305 57.9993 23.8609C57.5821 23.1644 56.8848 22.7819 56.0496 22.6071C55.0407 22.4327 53.9614 22.3979 52.8473 22.5379C51.4548 22.7819 50.0623 23.2684 48.8086 24.1741C47.9033 24.8006 47.1373 25.5323 46.372 26.2972C45.5367 27.0985 44.7703 27.9338 44.1438 28.8748C42.8905 30.7542 41.8457 32.7037 41.2192 34.7584C40.9752 35.5593 40.8364 36.3594 40.8712 37.1255C40.9752 38.4141 41.4976 39.4586 42.7513 39.9107C43.4818 40.1891 44.2478 40.2235 45.0835 40.1195C45.9884 40.0155 46.824 39.6667 47.6249 39.1098C48.1474 38.7617 48.6002 38.3445 49.0174 37.9264C49.9223 36.9507 50.8284 36.0114 51.7332 35.0368C52.1509 34.584 52.6037 34.0963 53.0209 33.6442C53.0565 33.6442 53.0565 33.6442 53.0909 33.679C52.9513 34.0963 52.8129 34.5496 52.6725 35.0024C52.4289 35.8369 52.2553 36.7083 52.2905 37.508C52.3945 38.7965 52.9513 39.6667 54.1702 40.0155C55.5631 40.3984 56.9556 40.0507 58.2778 39.0058C59.009 38.4489 59.601 37.752 60.2619 37.0907C61.9328 35.3845 63.6398 33.7138 65.2751 31.9376C65.5895 31.5548 65.972 31.2071 66.2504 30.7542C66.3896 30.5458 66.4944 30.3018 66.3544 30.0581C66.216 29.8833 65.972 29.9185 65.7279 29.9885C65.1711 30.1278 64.6835 30.441 64.2662 30.8939C62.7697 32.3905 61.272 33.9227 59.7755 35.4197C58.9398 36.2898 58.1045 37.1599 57.1293 37.8916C56.92 38.0304 56.7464 38.1701 56.5372 38.2741C56.3628 38.3793 56.328 38.3445 56.328 38.1701C56.328 37.9608 56.328 37.752 56.3988 37.5784C56.6768 36.2554 57.2345 34.9668 57.8953 33.7138C58.487 32.5301 59.2182 31.4507 59.8103 30.2662C60.0539 29.7793 60.2979 29.292 60.6111 28.8044C61.2024 27.8298 61.7944 26.8545 62.3861 25.88C62.6645 25.4619 62.9433 25.0098 63.2213 24.557C63.3962 24.2781 63.535 23.9653 63.6042 23.6173C63.7094 23.2336 63.6042 22.9204 63.3265 22.6767C63.0829 22.4675 62.7341 22.3287 62.3513 22.2939C62.1477 22.2675 61.9396 22.2523 61.7288 22.2523C61.1104 22.2523 60.4679 22.3835 59.8447 22.7471ZM45.9192 37.752C45.7792 37.7172 45.85 37.5436 45.85 37.404C45.85 36.8815 46.0936 36.3594 46.2672 35.8369C46.8241 34.0963 47.5557 32.3905 48.5298 30.719C49.2958 29.4317 50.1663 28.1779 51.1416 26.9945C51.6984 26.3324 52.3597 25.7403 53.0909 25.2179C53.1605 25.1487 53.2646 25.1139 53.335 25.0446C54.2398 24.5222 54.6223 24.5914 54.9715 25.3575C55.1099 25.6707 55.1795 26.0192 55.2843 26.4024C55.3887 26.8197 55.4927 27.2382 55.9456 27.481C54.9715 28.0379 54.3786 28.8044 53.7522 29.5357C52.0813 31.4507 50.4447 33.331 48.739 35.176C47.9729 36.0114 47.1729 36.8467 46.3016 37.5436C46.1852 37.6312 46.0932 37.7684 45.984 37.7684C45.9632 37.7684 45.9416 37.7632 45.9192 37.752Z" fill="url(#paint1_linear_7_1010)"/>
<path d="M79.9763 22.5379C78.3745 23.0244 76.9116 23.8957 75.5547 24.9754C74.0222 26.2284 72.5257 27.5166 71.0636 28.9092C71.028 28.944 70.9588 29.0132 70.8896 29.0132C70.8547 28.9788 70.8896 28.944 70.924 28.8748C71.6556 27.795 72.3165 26.6105 73.0481 25.4967C73.3613 24.9754 73.6746 24.453 73.8838 23.8609C74.0222 23.5468 73.9878 23.2684 73.7786 23.0244C73.709 22.9203 73.5694 22.8163 73.4305 22.7471C72.3513 22.1898 71.1332 22.1898 69.8099 22.7471C69.4274 22.8859 69.113 23.1644 68.8702 23.512C68.4522 24.1041 68.0349 24.7314 67.6169 25.3231C65.7019 28.4215 63.8918 31.5547 62.1861 34.7224C61.524 35.9765 60.9324 37.2651 60.5151 38.5873C60.2367 39.5282 60.4803 40.1195 61.3148 40.3287C62.2557 40.5372 63.439 40.4328 64.5182 39.2842C65.1795 38.5529 65.876 37.822 66.572 37.1255C68.5918 35.0024 70.6455 32.8781 72.7349 30.823C74.3702 29.188 76.1116 27.6554 77.9561 26.2284C78.0257 26.1932 78.1305 26.0536 78.2345 26.0892C78.2693 26.2284 78.1653 26.2972 78.0961 26.4024C77.8869 26.7853 77.6777 27.2037 77.4341 27.5514C76.2852 29.292 75.3111 31.1031 74.3358 32.8781C73.4654 34.4095 72.8389 35.9765 72.5257 37.5784C72.3165 38.5873 72.5605 39.423 73.1869 40.0507C74.057 40.9208 75.6931 40.9208 76.9816 40.1547C77.6085 39.7719 78.1305 39.319 78.653 38.8313C79.6966 37.822 80.8107 36.8467 81.89 35.8725C83.3181 34.584 84.7098 33.2606 86.0679 31.9376C86.2772 31.764 86.4512 31.5547 86.5552 31.3455C86.7644 30.9631 86.6604 30.7542 86.2772 30.7542C85.9287 30.7542 85.6155 30.8938 85.3375 31.0323C84.8847 31.2763 84.467 31.6243 84.1182 31.9732C82.4469 33.4698 80.8107 34.9668 79.1398 36.4642C78.4093 37.0907 77.6777 37.6824 76.9116 38.2049C76.8076 38.2741 76.7036 38.3793 76.564 38.3445C76.564 38.1352 76.634 37.9264 76.7036 37.7172C77.1208 36.6734 77.6085 35.6633 78.2345 34.688C79.0702 33.2954 79.9407 31.9376 80.8107 30.5806C81.6476 29.3264 82.4821 28.1083 83.1785 26.7853C83.5958 26.0192 83.9794 25.2179 84.2234 24.4182C84.3966 23.8957 84.3622 23.408 84.0834 23.06C83.805 22.7471 83.4569 22.5379 83.0389 22.4327C82.6309 22.2967 82.2028 22.233 81.7612 22.233C81.1856 22.233 80.5863 22.3411 79.9763 22.5379Z" fill="url(#paint2_linear_7_1010)"/>
<path d="M99.3754 7.8107C99.027 7.91471 98.6781 8.08913 98.3305 8.36757C97.9481 8.68082 97.5989 9.06327 97.2856 9.44692C97.2856 9.44692 94.4658 13.2414 93.9434 14.0768C93.7702 14.3912 93.5613 14.4604 93.2477 14.4604C79.0782 14.4604 78.3121 14.4604 77.5113 14.4952C76.1896 14.5992 74.8659 14.7737 73.5082 15.1217C72.4985 15.4001 71.5236 15.783 70.6191 16.3399C69.9915 16.7235 69.4346 17.1408 68.9826 17.7337C68.4602 18.4294 68.391 19.021 68.7734 19.6475C69.261 20.3444 69.9571 20.7269 70.8968 20.8317C71.2104 20.8317 71.5236 20.7617 71.8024 20.5537C72.1156 20.3444 72.1501 20.2048 71.976 19.9616C71.8372 19.7523 71.8372 19.7179 72.1157 19.5435C72.6381 19.2303 73.1605 18.9862 73.6818 18.777C75.0751 18.2549 76.5028 17.8721 91.3328 17.6285C91.8208 17.6285 91.8208 17.5588 91.6116 18.0109C90.5667 19.9616 89.5218 21.9106 87.3993 26.0536C86.7728 27.2726 86.2504 28.526 85.6227 29.7449C84.579 31.66 83.6734 33.5738 83.0121 35.5937C82.5941 36.8815 82.4901 38.1353 82.8033 39.2842C82.9777 39.8759 83.3257 40.2932 83.8478 40.5372C84.7875 40.9553 85.8319 40.9209 86.9464 40.468C87.8165 40.1196 88.5477 39.5283 89.2438 38.8662C90.7415 37.404 92.3072 35.9766 93.805 34.5144C94.6058 33.7139 95.4055 32.9474 96.2064 32.1469C96.4156 31.9376 96.6248 31.6944 96.7288 31.4163C96.938 30.9979 96.7636 30.6847 96.3116 30.7191C95.9983 30.7191 95.6851 30.8591 95.4055 31.0323C95.0227 31.2763 94.7098 31.5896 94.3618 31.868C93.0041 33.0518 91.6808 34.2707 90.3927 35.5237C89.453 36.3938 88.5478 37.2652 87.5377 38.0305C87.3993 38.1353 87.2941 38.2397 87.086 38.2741C87.1204 38.0649 87.1552 37.8568 87.2248 37.648C87.5033 36.8123 87.7817 35.9766 88.1297 35.1065C88.6866 33.7831 89.3834 32.4945 90.0795 31.1723C92.0632 27.4462 95.2319 21.5626 97.356 17.8377C97.6693 17.2456 97.5645 17.2808 98.2609 17.3152C99.5138 17.3848 100.768 17.454 113.335 17.3848C114.38 17.5244 115.424 17.5936 116.26 18.1853C116.503 18.3602 116.852 18.4294 117.2 18.3946C117.93 18.3601 118.349 17.8377 118.14 17.2112C118.036 16.9324 117.826 16.6887 117.617 16.4795C117.165 16.0622 116.643 15.7478 116.016 15.5054C114.763 15.0177 113.37 14.7737 100.593 14.8085C100.28 14.8085 99.9667 14.7393 99.619 14.7044C99.2354 14.6684 99.2354 14.634 99.4442 14.2512C99.5842 14.0424 99.723 13.7983 99.8618 13.5547L101.081 11.6756C101.533 10.9439 101.951 10.1778 102.23 9.37772C102.508 8.61161 102.369 8.12394 101.672 7.87991C101.3 7.73069 100.907 7.66148 100.494 7.66148C100.136 7.66148 99.7634 7.71349 99.3754 7.8107Z" fill="url(#paint3_linear_7_1010)"/>
<path d="M113.793 21.8066C112.713 21.9462 111.843 22.4327 111.146 23.4428C110.101 24.9754 108.987 26.5065 108.048 28.1431C107.909 28.3523 107.769 28.5603 107.526 28.7696C106.69 29.5013 105.854 30.2662 105.019 30.9979C102.791 33.0518 100.597 35.1064 98.2305 37.0215C98.1257 37.1255 98.0561 37.2307 97.8825 37.2651C97.9173 36.9507 98.0905 36.6735 98.1957 36.3938C99.0314 34.4451 100.111 32.5649 101.225 30.6846C102.13 29.188 103.104 27.7606 104.01 26.2628C104.531 25.4271 105.019 24.557 105.401 23.6869C105.716 23.0244 105.611 22.5379 105.053 22.2247C104.81 22.0502 104.531 21.9462 104.253 21.8758C103.696 21.7714 103.139 21.7714 102.547 21.841C101.502 21.9806 100.632 22.4675 99.9711 23.4428C99.831 23.6521 99.6926 23.8253 99.5538 24.0345C98.717 25.3575 97.8825 26.6813 97.046 28.0035C95.9675 29.7449 94.8883 31.5203 94.1222 33.3658C93.669 34.3747 93.2517 35.3845 93.1121 36.4642C93.0425 37.1599 93.0081 37.8568 93.0777 38.5529C93.2173 39.4586 93.7042 40.0851 94.575 40.364C95.7239 40.7116 96.942 40.6076 98.1601 39.9107C99.5178 39.1442 100.737 38.1701 101.886 37.1255C102.616 36.4642 103.348 35.8021 104.045 35.176C104.149 35.0716 104.218 34.9668 104.358 34.9668C104.393 35.0716 104.323 35.2104 104.287 35.3157C104.079 35.9069 103.87 36.499 103.766 37.0907C103.627 37.7876 103.592 38.4489 103.801 39.075C104.149 40.0851 105.159 40.642 106.342 40.5024C107.003 40.4328 107.595 40.1547 108.187 39.7719C108.918 39.2494 109.58 38.6577 110.241 38.1353C112.365 36.3938 114.419 34.584 116.507 32.7741C116.822 32.4597 117.169 32.1468 117.482 31.868C117.656 31.6944 117.796 31.5203 117.9 31.3111C118.074 30.9283 117.935 30.6498 117.552 30.6846C117.448 30.6846 117.343 30.719 117.239 30.719C116.822 30.823 116.438 31.0323 116.056 31.3111C115.254 31.868 114.488 32.5301 113.687 33.1914C111.982 34.6184 110.311 36.1162 108.57 37.508C108.466 37.6132 108.361 37.7172 108.152 37.7876C108.222 37.6132 108.292 37.508 108.326 37.404C108.849 36.3594 109.44 35.3501 110.032 34.3403C111.634 31.6244 113.374 28.944 115.115 26.2628C115.671 25.3927 116.16 24.4874 116.612 23.5816C116.891 22.9552 116.822 22.6071 116.369 22.2595C116.265 22.1543 116.125 22.0846 115.95 22.0154C115.487 21.8446 115.008 21.7598 114.487 21.7598C114.264 21.7598 114.033 21.7754 113.793 21.8066Z" fill="url(#paint4_linear_7_1010)"/>
<path d="M124.416 5.30874C123.919 5.27354 123.459 5.38035 122.999 5.55678C122.362 5.87522 121.972 6.37169 121.901 7.00898C121.759 8.21354 122.184 9.13407 122.857 9.91338C123.14 10.2318 123.495 10.5155 123.849 10.7635C124.521 11.2232 125.123 11.7896 125.832 12.2857C126.256 12.5689 126.717 12.8878 127.213 13.1006C127.744 13.3487 128.31 13.4543 128.984 13.3487C129.337 13.277 129.656 13.171 129.939 12.923C130.294 12.675 130.365 12.4281 130.152 12.1437C129.939 11.8612 129.656 11.6484 129.373 11.4008C128.876 10.9399 128.346 10.5155 127.85 10.0898C127.177 9.52293 126.788 8.78042 126.469 7.9303C126.256 7.36342 126.043 6.79695 125.832 6.19527C125.639 5.61519 125.212 5.29914 124.604 5.29914C124.543 5.29914 124.48 5.30234 124.416 5.30874Z" fill="url(#paint5_linear_7_1010)"/>
<path d="M136.85 21.1993C136.566 21.2349 136.283 21.2701 135.999 21.3417C133.415 21.8718 131.077 23.0416 129.201 25.2715C128.067 26.6177 127.323 28.0695 127.147 29.6989C126.97 31.2579 127.076 32.7449 127.465 34.1611C127.819 35.4005 128.138 36.6759 128.492 37.8796C128.599 38.1981 128.599 38.1981 128.244 38.4109C126.828 39.2962 125.375 40.1463 124.031 41.1737C123.322 41.7038 122.72 42.2706 122.189 42.9791C121.587 43.7588 121.409 44.5369 121.587 45.3163C121.8 46.1664 122.259 46.8037 123.003 47.1937C124.703 48.079 126.58 48.2919 128.74 47.5474C131.006 46.7685 133.061 44.7142 133.591 42.3422C133.804 41.2441 133.874 40.1815 133.804 39.155C133.768 38.6237 133.698 38.0921 133.591 37.5964C133.556 37.3836 133.627 37.2427 133.839 37.1355C134.052 37.0299 134.265 36.8887 134.476 36.7815C136.991 35.4709 139.54 34.2319 142.02 32.8505C143.047 32.2841 144.073 31.7524 145.1 31.1507C145.348 31.0099 145.596 30.8323 145.773 30.6194C146.128 30.2654 146.056 29.9469 145.632 29.8761C145.419 29.8409 145.171 29.8409 144.959 29.9117C144.499 30.0173 144.073 30.1598 143.648 30.3714C143.047 30.691 142.445 31.0099 141.842 31.3283C139.116 32.7449 136.353 34.1967 133.591 35.5781C133.202 35.7905 133.202 35.7905 133.096 35.4357C132.883 34.622 132.671 33.8075 132.494 32.993C132.21 31.5408 132.139 30.0525 132.776 28.4599C133.237 27.291 133.909 26.1932 134.867 25.2363C135.363 24.7414 135.929 24.3162 136.531 24.0325C136.707 23.9621 136.814 23.9621 136.85 24.1385C136.991 24.7054 137.027 25.3079 136.779 25.9452C136.566 26.5473 136.212 27.1137 135.787 27.6098C135.468 27.9639 135.185 28.2823 134.867 28.5655C134.406 28.956 134.37 29.3449 134.724 29.6637C134.902 29.8045 135.115 29.9117 135.363 29.9469C136.176 30.1246 137.027 30.1246 137.912 29.7341C139.576 28.9912 140.745 27.7862 141.453 26.1932C141.701 25.5915 141.878 24.9895 141.878 24.423C141.914 23.4308 141.595 22.6515 140.851 22.1203C139.966 21.4474 138.868 21.1641 137.629 21.1993C137.464 21.1993 137.282 21.1837 137.107 21.1837C137.019 21.1837 136.932 21.1877 136.85 21.1993ZM124.668 43.9353C124.739 43.688 124.88 43.4752 125.021 43.2624C125.269 42.9439 125.517 42.6607 125.801 42.4127C126.686 41.6686 127.606 40.9256 128.563 40.2884C128.634 40.2524 128.74 40.2168 128.775 40.1463C128.953 40.0403 129.023 40.0759 129.059 40.2524C129.13 40.6776 129.165 41.1737 129.165 41.6333C129.165 41.9882 129.13 42.307 129.023 42.6959C128.953 43.0499 128.81 43.44 128.634 43.794C128.28 44.7142 127.536 45.3163 126.757 45.8475C126.616 45.9547 126.438 46.0252 126.297 46.0252C124.986 46.0252 124.314 44.927 124.668 43.9353Z" fill="url(#paint6_linear_7_1010)"/>
<defs>
<linearGradient id="paint0_linear_7_1010" x1="0.000127758" y1="23.918" x2="49.9966" y2="23.918" gradientUnits="userSpaceOnUse">
<stop stop-color="#A26E19"/>
<stop offset="0.30607" stop-color="#EADE63"/>
<stop offset="0.396094" stop-color="#EADE63"/>
<stop offset="0.831222" stop-color="#B28933"/>
<stop offset="1" stop-color="#B28933"/>
</linearGradient>
<linearGradient id="paint1_linear_7_1010" x1="40.866" y1="31.213" x2="66.4206" y2="31.213" gradientUnits="userSpaceOnUse">
<stop stop-color="#A26E19"/>
<stop offset="0.30607" stop-color="#EADE63"/>
<stop offset="0.396094" stop-color="#EADE63"/>
<stop offset="0.831222" stop-color="#B28933"/>
<stop offset="1" stop-color="#B28933"/>
</linearGradient>
<linearGradient id="paint2_linear_7_1010" x1="60.4049" y1="31.4749" x2="86.6615" y2="31.4749" gradientUnits="userSpaceOnUse">
<stop stop-color="#A26E19"/>
<stop offset="0.30607" stop-color="#EADE63"/>
<stop offset="0.396094" stop-color="#EADE63"/>
<stop offset="0.831222" stop-color="#B28933"/>
<stop offset="1" stop-color="#B28933"/>
</linearGradient>
<linearGradient id="paint3_linear_7_1010" x1="68.5307" y1="24.2459" x2="118.193" y2="24.2459" gradientUnits="userSpaceOnUse">
<stop stop-color="#A26E19"/>
<stop offset="0.30607" stop-color="#EADE63"/>
<stop offset="0.396094" stop-color="#EADE63"/>
<stop offset="0.831222" stop-color="#B28933"/>
<stop offset="1" stop-color="#B28933"/>
</linearGradient>
<linearGradient id="paint4_linear_7_1010" x1="93.0397" y1="31.1583" x2="117.974" y2="31.1583" gradientUnits="userSpaceOnUse">
<stop stop-color="#A26E19"/>
<stop offset="0.30607" stop-color="#EADE63"/>
<stop offset="0.396094" stop-color="#EADE63"/>
<stop offset="0.831222" stop-color="#B28933"/>
<stop offset="1" stop-color="#B28933"/>
</linearGradient>
<linearGradient id="paint5_linear_7_1010" x1="121.874" y1="9.34424" x2="130.272" y2="9.34424" gradientUnits="userSpaceOnUse">
<stop stop-color="#A26E19"/>
<stop offset="0.30607" stop-color="#EADE63"/>
<stop offset="0.396094" stop-color="#EADE63"/>
<stop offset="0.831222" stop-color="#B28933"/>
<stop offset="1" stop-color="#B28933"/>
</linearGradient>
<linearGradient id="paint6_linear_7_1010" x1="121.521" y1="34.5919" x2="146" y2="34.5919" gradientUnits="userSpaceOnUse">
<stop stop-color="#A26E19"/>
<stop offset="0.30607" stop-color="#EADE63"/>
<stop offset="0.396094" stop-color="#EADE63"/>
<stop offset="0.831222" stop-color="#B28933"/>
<stop offset="1" stop-color="#B28933"/>
</linearGradient>
</defs>
</svg>
